Patient4_TMGait_0pt4_01_left_28_EMG.mot
version=1
nRows=39
nColumns=33
inDegrees=no
endheader
time	1LAddLong	2LGlutMax	3LGlutMed	4LIliopsoas	5LSemiMemb	6LBicFemLong	7LRecFem	8LVastMed	9LVastLat	10LGasMed	11LTibAnt	12lTibPost	13LPeroneusLong	14LSol	15LExtDigLong	16LFlexDigLong	17RAddLong	18RGlutMax	19RGlutMed	20RIliopsoas	21RSemiMemb	22RBicFemLong	23RRecFem	24RVastMed	25RVastLat	26RGasMed	27RTibAnt	28RTibPost	29RPeroneusLong	30RSol	31RExtDigLong	32RFlexDigLong
35.52	-0.0177	-0.010223	-0.010986	0.019379	0.017395	0.013733	0.03479	0.010223	0.079651	0.003052	0.016479	-0.002289	0.006714	0.054626	0.082397	0.01358	0.004883	0.065308	-0.068207	0.16296	-0.080414	0.11505	-0.23987	-0.006866	-0.021973	-0.020294	-0.000916	0.044098	-0.32166	0.000763	-0.000763	-0.001221
35.521	-0.014343	-0.002747	0.008087	0.011749	0.00824	0.004883	0.016937	0.014343	0.075226	-0.002289	0.016632	-0.003967	0.000305	0.065765	0.058441	0.019379	0.00412	-0.044403	-0.18478	0.096283	0.043182	0.062408	-0.13763	0.006104	-0.041962	0.012817	-0.023041	-0.00824	-0.21347	-0.13565	-0.003815	-0.003204
35.522	-0.008087	-0.043335	-0.023346	-0.013428	-0.046844	-0.003357	0.003967	0.001984	0.095215	0.003662	0.022278	0.003967	-0.00061	0.062866	0.02182	-0.002441	-0.007935	-0.10208	-0.070801	0.023956	0.075531	0.071869	-0.06546	-0.085907	-0.0354	0.009613	-0.016937	-0.032654	-0.043945	0.072784	-0.002136	0.002899
35.523	0.014954	-0.016022	-0.018768	-0.014343	-0.10834	-0.053864	-0.004272	0.00885	0.089874	-0.010223	0.033112	-0.002289	0.017853	0.040131	-0.014801	0.017242	-0.005188	-0.084686	-0.22736	-0.027924	0.010376	0.085144	0.035248	-0.028076	-0.034637	0.018463	-0.056915	-0.038605	0.37598	0.027008	-0.005493	0.002289
35.524	0.02121	-0.013275	-0.025635	-0.005951	-0.083466	-0.024567	0.030975	0.000305	0.087738	-0.012665	0.016632	-0.000305	0.016632	0.018158	0.001678	0.005646	0.015869	-0.076141	0.15686	-0.005646	0.013123	0.055084	0.12375	0.053406	-0.034637	0.001068	-0.057831	-0.052032	0.62439	0.084839	-0.002747	0.00473
35.525	0.029144	-0.02182	-0.039063	0.001678	-0.001984	-0.007782	0.032654	-0.001526	0.097198	-0.001831	0.002136	-0.002289	-0.006409	0.012817	0.016022	0.016327	0.018921	-0.13519	0.074768	-0.049896	0.009308	0.025177	0.18356	0.068207	-0.019379	-0.042725	-0.014343	-0.081329	0.31189	0.1738	0	0.005035
35.526	0.017548	-0.011749	-0.034637	-0.011139	0.052032	-0.005035	0.011597	0.006714	0.088501	0.000763	-0.007324	-0.007477	-0.008392	-0.019073	0.021973	0.019684	0.02182	-0.12314	-0.0737	-0.13367	0.000916	0.045013	0.055847	-0.078278	-0.063782	-0.032959	0.015869	-0.17014	-0.080872	0.39093	-0.003662	0.010223
35.527	0.008087	0.014038	-0.041199	-0.001068	0.022888	-0.005188	0.034637	0.007477	0.09903	-0.011749	-0.007324	0.005493	-0.010376	0.022278	0.025482	0.006104	0.025024	-0.098724	-0.21423	-0.13199	-0.0177	0.025635	0.009003	-0.067444	-0.074158	-0.053101	0.049896	-0.13519	-0.19989	0.59311	-0.005493	0.004883
35.528	0.00824	0.001678	-0.036469	0.003357	-0.007019	-0.00412	0.030518	0.009613	0.10391	-0.009003	-0.008545	-0.010071	-0.009918	0.047607	0.022278	-0.005646	0.021973	-0.15121	-0.19012	-0.10178	0.002289	0.026093	-0.028687	0.07309	-0.076294	-0.019073	0.10651	0.007019	-0.089111	0.25879	0.001373	0.00824
35.529	0.009613	-0.005646	-0.01709	-0.001984	-0.038757	-0.030365	0.024719	0.001526	0.11231	-0.023041	-0.006409	-0.027008	0.00351	0.04425	0.000763	0.010376	0.017548	-0.14679	-0.24063	-0.002747	0.014954	0.026398	0.012512	0.13565	-0.091553	0.014191	0.22079	0.10193	-0.058746	-0.18448	0.000305	-0.004272
35.53	0.006714	0.00824	-0.036316	0.000458	0.005646	-0.028992	0.049286	0.001526	0.10819	-0.004272	-0.003662	-0.001373	0.002441	0.026703	0.011749	-0.004883	0.001221	-0.18692	-0.44357	0.12909	0.021362	0.045776	0.076752	0.098877	-0.17364	0.011597	0.073547	0.082397	0.031281	-0.63217	-0.001678	0.006714
35.531	0.006409	0.046539	-0.047455	-0.001831	-0.003052	-0.022583	0.041656	0.005188	0.10605	-0.016632	0.001526	-0.010223	0.011139	0.031586	0.007477	0.013275	-0.024109	-0.18784	-0.19211	0.1506	0.034637	0.057983	-0.000763	0.088654	-0.18494	0.002747	-0.081635	0.021057	0.063324	-0.4393	0.000305	-0.000458
35.532	0.007782	0.053864	-0.038605	0.001068	0.016632	-0.040588	0.0383	-0.00412	0.11063	-0.011444	0.014343	-0.000916	0.015564	0.034027	0.010071	0.003052	-0.001526	-0.21881	0.002899	0.11566	0.034485	0.027771	0.050659	0.11383	-0.057678	0.00473	0.06134	0.02182	0.13062	0.4155	0.00061	-0.001831
35.533	0.013733	-0.002899	-0.04425	0.001984	0.014343	0.002136	0.052643	0.003815	0.10254	-0.008698	0.006866	0.002747	0.004272	0.027924	0.007629	-0.00061	-0.005341	-0.31769	0.40909	0.10208	0.052032	0.038605	-0.25665	-0.10269	0.16892	-0.001984	-0.069122	0.05249	0.10529	0.38406	-0.000153	0.000153
35.534	0.007019	-0.015411	-0.045929	-0.004883	-0.006714	0.021515	0.058136	0.002136	0.097504	-0.009918	0.007629	-0.007477	-0.00824	0.037842	0.009155	0.002441	-0.006714	-0.30319	0.074158	0.078125	0.045776	0.032349	-0.38132	-0.13351	0.23056	0.00412	0.016785	-0.32867	0.032959	0.094757	-0.003204	-0.005646
35.535	0.012817	0.005035	-0.027466	-0.018616	-0.009308	-0.009918	0.06424	0.001984	0.10223	-0.001221	0.007477	0.006104	-0.014191	0.014343	0.000305	-0.002441	0.002594	-0.24338	0.16449	0.013275	0.034027	0.033875	-0.13123	-0.05188	0.11749	0.00824	-0.11566	-0.087433	0.032043	0.04303	-0.007019	-0.001526
35.536	0.006104	0.023804	-0.022888	0.002594	-0.010071	0.001678	0.060425	0.001984	0.10788	-0.004883	0.009003	-0.001526	0.018768	0.03418	0.000916	-0.002747	0.012817	-0.2771	0.30197	-0.039063	0.033875	0.059357	-0.014496	-0.020599	-0.03418	0.017853	0.049438	0.13336	-0.027008	0.20279	-0.010529	0.000763
35.537	0.00473	0.039978	-0.012054	0.013123	-0.025787	-0.048981	0.051727	0	0.11261	0.00061	-0.013428	-0.005798	0.045319	0.020905	0.013428	-0.00412	0.017548	-0.32364	0.58197	-0.071259	0.044708	0.074921	0.084229	0.02243	-0.095062	0.006866	-0.063171	0.036163	-0.013275	0.28	-0.003204	0.005035
35.538	-0.000305	0.040894	0.015411	0.001526	-0.023651	-0.058441	0.056763	0.005951	0.11139	-0.005493	0.046539	-0.005951	0.039215	0.016632	-0.001831	-0.013123	0.031586	-0.29159	0.57892	-0.054932	0.053864	0.075684	0.037384	-0.006256	-0.1181	-0.000458	0.011597	-0.006256	-0.029144	0.085907	0	0.009003
35.539	-0.00412	0.014801	0.001221	-0.005493	0.005341	-0.009155	0.052795	0.006866	0.11185	-0.029907	0.003662	-0.015259	0.025482	0.003204	0.00824	-0.019684	0.005188	-0.32974	0.14633	-0.059814	0.060883	0.077515	-0.052795	-0.018768	-0.16083	0.01236	0.2327	-0.040741	-0.31876	-0.14969	-0.007782	0.007477
35.54	-0.013733	0.039063	-0.062866	0.013123	0.013123	-0.039825	0.055695	-0.00473	0.10574	-0.020599	0.00061	-0.004578	0.004578	-0.004578	0.001984	-0.001831	-0.00885	-0.26932	0.078125	-0.090332	0.045471	0.10117	-0.1564	0.021667	-0.002441	0.032806	0.10651	-0.037689	-0.32516	-0.20294	-0.003357	0.008087
35.541	0.002441	0.024261	-0.066528	-0.007782	-0.016174	-0.083313	0.050812	0.002899	0.10819	-0.013733	0.012665	-0.007782	-0.053711	-0.045319	-0.012665	-0.012665	-0.011597	-0.23056	0.15915	-0.034485	0.092621	0.068207	-0.18326	0.04837	0.12146	0.029297	-0.15579	-0.065002	-0.30243	-0.22507	-0.00412	0.003662
35.542	0.001373	-0.000153	-0.051117	-0.003967	0.026703	-0.11444	0.064697	0.001221	0.12161	-0.024109	0.005646	-0.013275	-0.031433	-0.054779	-0.011902	-0.0177	-0.000153	-0.2858	-0.045776	-0.011292	0.072937	0.018463	-0.094147	0.045776	0.030823	0.011139	-0.62561	-0.015411	-0.20798	-0.48508	-0.002136	-0.003357
35.543	0.00351	-0.008392	0.040741	0.013123	0.061493	-0.054016	0.045624	-0.003967	0.11643	-0.007935	0.004272	-0.00885	-0.015869	-0.052643	0.005798	-0.017242	0.000153	-0.28503	-0.28641	0.034485	0.04776	0.069427	-0.084381	-0.012512	0.058594	-0.010223	-0.48706	-0.059814	-0.35278	-0.89096	-0.000458	-0.010071
35.544	-0.001373	-0.024414	0.078888	0.014343	0.028992	0.003815	0.047913	-0.000916	0.12955	-0.023804	0.000305	-0.00946	-0.013275	-0.071411	-0.007477	-0.008698	0.002747	-0.25253	-0.35233	0.013733	-0.00885	0.13397	-0.050812	0.016632	0.0737	-0.040894	-0.1915	-0.015411	-0.10803	-1.1203	0.002289	-0.009155
35.545	0.004272	-0.013885	0.049591	-0.00061	-0.006561	0.013733	0.040894	-0.004578	0.11795	-0.073395	0.005035	-0.00061	-0.027466	-0.053101	-0.00885	-0.020752	0.006866	-0.26993	0.12054	-0.078735	-0.19486	0.15854	-0.0383	0.029907	0.056915	-0.00351	-0.003815	-0.18814	0.051117	-0.82047	-0.003662	0.003204
35.546	0.008087	0.010681	-0.06485	0.018311	-0.062103	-0.040131	0.063171	-0.006256	0.11597	-0.093079	0.007935	-0.002747	-0.0354	-0.001221	-0.002441	-0.017242	0.020752	-0.21957	0.15488	-0.046844	-0.17517	0.10544	-0.038757	-0.036621	0.023499	0.042725	0.09964	-0.09964	0.4924	-0.16968	-0.006561	0.003967
35.547	0.00824	0.000305	-0.080566	0.012665	-0.067596	-0.0737	0.067749	-0.008087	0.12161	-0.044403	0.009308	-0.01297	-0.030518	0.072937	0.009613	0.002899	0.025787	-0.17471	-0.016632	0.053406	0.001678	0.046082	-0.008545	-0.081635	0.025787	-0.057068	0.11566	-0.060577	0.71121	0.39215	-0.001526	0.011139
35.548	0.006866	0.035248	-0.027313	0.016785	0.029297	-0.047302	0.050659	-0.012054	0.11902	-0.035095	0.001831	-0.005798	-0.003357	0.064087	0.002289	0.003662	-0.002594	-0.2269	-0.095673	0.13321	0.1915	0.034485	-0.010986	-0.023956	-0.008392	-0.084686	0.097504	-0.046082	0.34546	0.54336	-0.000153	0.012054
35.549	-0.002289	0.03006	0.026398	-0.016022	0.044556	-0.037537	0.073395	-0.005035	0.11536	-0.022125	-0.009613	-0.01358	0.006714	0.003662	0.004883	0.000916	-0.002136	-0.17425	0.093384	0.10056	0.21973	0.041809	0.037537	-0.063934	-0.032654	-0.013275	0.053864	0.091095	0.073547	-0.12589	0.002441	0.011749
35.55	-0.007629	-0.012665	0.066528	-0.009155	-0.018158	-0.057373	0.083771	0.001526	0.10803	0.036163	0.019684	-0.008392	-0.004578	0.006561	0.00351	0.001373	0.014954	-0.11566	0.19012	-0.005493	-0.008698	0.062256	0.031738	-0.11993	-0.078583	-0.02533	0.14252	0.13382	-0.15839	-0.63522	0.001373	-0.002136
35.551	-0.001984	-0.043945	0.086517	-0.00351	-0.018768	-0.086517	0.075378	-0.003052	0.09964	0.012817	0.022888	0.001678	-0.005493	0.04776	-0.007172	0.001221	-0.000305	-0.19928	-0.062561	-0.026093	0.041809	0.036011	-0.022278	-0.00473	-0.052795	-0.038452	0.26932	0.032349	-0.298	-0.12299	-0.003052	-0.007935
35.552	0.002594	-0.082092	0.059509	-0.000458	-0.005035	-0.072784	0.055847	-0.007172	0.098419	-0.021667	-0.014801	-0.015106	0.050659	0.04425	-0.00824	0.013733	-0.015869	-0.27786	-0.09201	-0.0383	0.001373	0.047455	-0.054321	-0.022888	-0.049896	-0.041656	0.50949	-0.084686	-0.30045	0.70847	-0.00061	-0.011749
35.553	0.018616	-0.05249	0.055084	0.014038	0.019379	-0.053558	0.06424	-0.013275	0.095978	-0.062866	-0.038605	-0.008698	0.038452	-0.022125	0.005646	0.001984	-0.010223	-0.26703	-0.020294	-0.048981	-0.10971	0.094147	-0.13428	-0.072937	0.028534	-0.038147	0.76553	0.091858	-0.16953	0.69473	-0.005646	-0.001526
35.554	0.008392	-0.079956	0.030823	-0.011139	0.012054	-0.064087	0.079956	-0.013275	0.090637	-0.034637	0.00412	-0.016785	0.006104	-0.070496	-0.005798	-0.001373	-0.000153	-0.24109	0.070648	-0.083466	0.054169	0.095062	-0.10437	0.010529	0.087433	-0.018005	0.58548	0.042419	0.085297	0.28671	-0.008698	0.004883
35.555	0.007019	-0.020447	0.014038	0.015106	0.007935	-0.054016	0.079346	-0.016479	0.091705	-0.000153	0.007477	0.001068	-0.00946	-0.059967	-0.007172	-0.005646	-0.008545	-0.21637	0.054474	-0.002899	0.3923	0.030823	-0.024261	0.015411	0.00946	0.006866	-0.33524	-0.011139	0.30304	0.069427	-0.001678	0.007324
35.556	0.002899	0.001373	0.015259	0.002441	-0.019226	-0.029144	0.081482	-0.006409	0.089111	0.014954	0.005188	-0.002594	0.001984	0.029907	-0.00473	0.001068	0.005798	-0.17303	-0.085754	0.039825	0.22812	0.040283	-0.007172	0.034027	0.014648	0.026398	-1.2581	-0.023804	0.33005	-0.28641	-0.001221	0.011292
35.557	0.002136	-0.057678	0.023499	-0.008545	-0.040131	-0.013123	0.085297	-0.006561	0.071869	0.028076	0.00412	-0.006256	-0.013428	0.085754	-0.000458	-0.009003	0.007324	-0.22201	-0.09552	0.003815	0.12329	0.039368	-0.045624	0.006714	0.002136	0.040283	-1.1613	-0.02243	0.10681	-0.39902	-0.001678	0.004272
35.558	-0.006866	-0.0914	-0.068665	-0.001678	-0.056305	-0.030975	0.079346	-0.013123	0.086212	0.014496	0.007019	0.005646	0.000153	0.11688	-0.003815	-0.007935	0.005341	-0.2388	-0.090027	0.003967	0.12985	0.052032	-0.019226	0.053864	-0.010681	0.02594	-0.65948	-0.029602	-0.11734	-0.28442	-0.002441	0.005188
